<svg version="1.0" xmlns="http://www.w3.org/2000/svg" viewBox="0 0 300.000000 300.000000"
 preserveAspectRatio="xMidYMid meet">
<g transform="translate(0.000000,300.000000) scale(0.100000,-0.100000)" stroke="none">
<path d="M1445 2568 c-213 -27 -366 -190 -400 -428 -5 -34 -10 -1006 -6 -1102
1 -16 12 -18 76 -18 l75 0 0 103 c0 56 1 295 2 530 1 494 5 533 74 636 29 45
114 107 159 117 59 13 170 12 219 -3 91 -27 169 -129 194 -253 14 -72 6 -205
-18 -281 -37 -124 -123 -189 -232 -176 -63 8 -94 35 -106 91 -16 79 17 147 88
180 48 23 48 22 29 99 -10 38 -11 39 -47 32 -133 -25 -216 -130 -216 -275 0
-182 115 -288 302 -278 125 7 208 58 282 170 90 137 113 408 49 570 -81 207
-283 317 -524 286z"/>
<path d="M1399 813 c-137 -68 -165 -244 -57 -352 140 -141 386 -32 372 164 -5
60 -11 77 -44 123 -60 83 -177 111 -271 65z m162 -78 c93 -49 89 -201 -6 -241
-99 -41 -195 22 -195 127 0 39 33 95 68 114 36 19 96 19 133 0z"/>
</g>
</svg>
